# xmcd
#
# Track frame offsets: 
#        150
#        22967
#        46572
#        61192
#        91239
#        105266
#        129981
#        147526
#        179913
#        203698
#
# Disc length: 3271 seconds
#
# Revision: 0
# Processed by: cddbd v1.5.2PL0 Copyright (c) Steve Scherf et al.
# Submitted via: ExactAudioCopy v1.0b4
#
DISCID=7d0cc50a
DTITLE=Little Freddie King - Messin' Round Tha House
DYEAR=2008
DGENRE=Electric Blues, Texas Blues
TTITLE0=Messin' Round Tha House
TTITLE1=Can't Do Nothing Babe
TTITLE2=Dig Me A Hole
TTITLE3=Goin Out Da Mountain
TTITLE4=Sad Sad News
TTITLE5=The Things I Used To Do
TTITLE6=Kinghead Shuffle
TTITLE7=Bad News
TTITLE8=Goin' Upstairs
TTITLE9=Washerteria Woman
EXTD=
EXTT0=
EXTT1=
EXTT2=
EXTT3=
EXTT4=
EXTT5=
EXTT6=
EXTT7=
EXTT8=
EXTT9=
PLAYORDER=
